<?xml version="1.0" standalone="no"?>
<!DOCTYPE svg PUBLIC "-//W3C//DTD SVG 20010904//EN"
 "http://www.w3.org/TR/2001/REC-SVG-20010904/DTD/svg10.dtd">
<svg version="1.0" xmlns="http://www.w3.org/2000/svg"
 width="2560.000000pt" height="2560.000000pt" viewBox="0 0 2560.000000 2560.000000"
 preserveAspectRatio="xMidYMid meet">

<g transform="translate(0.000000,2560.000000) scale(0.100000,-0.100000)"
fill="#FFFFFF" stroke="none">
<path d="M4805 22375 c-49 -17 -90 -62 -104 -112 -15 -52 -15 -12114 -1
-12328 34 -499 114 -1077 216 -1555 221 -1035 588 -1946 1089 -2705 246 -372
488 -682 780 -994 645 -692 1418 -1262 2270 -1677 902 -438 1850 -699 2925
-804 205 -20 381 -25 925 -25 571 0 714 4 975 30 1409 136 2723 599 3835 1349
445 300 751 552 1120 921 292 291 391 402 658 735 29 35 138 184 227 310 566
798 985 1803 1221 2932 85 409 157 894 184 1253 4 44 9 96 13 115 12 66 13
12398 1 12443 -14 52 -63 102 -114 116 -29 8 -2282 11 -8110 11 -6930 -1
-8076 -3 -8110 -15z m6750 -2526 c22 -6 87 -15 145 -21 58 -5 114 -16 125 -23
11 -7 50 -16 85 -20 36 -4 75 -13 87 -21 13 -8 44 -17 70 -21 27 -3 64 -14 83
-25 19 -10 40 -18 47 -18 15 0 50 -15 88 -39 28 -17 30 -21 29 -82 0 -40 -6
-74 -16 -89 -9 -14 -19 -49 -22 -79 -4 -29 -13 -63 -21 -75 -7 -11 -16 -46
-20 -76 -4 -30 -13 -64 -19 -75 -7 -11 -16 -42 -20 -70 -4 -27 -15 -58 -23
-67 -17 -19 -48 -24 -57 -9 -3 5 -26 12 -50 15 -24 4 -49 13 -56 21 -6 7 -34
16 -63 20 -28 4 -68 16 -87 26 -19 11 -53 19 -75 19 -22 0 -53 7 -70 16 -20
11 -75 20 -165 27 -279 20 -530 9 -565 -27 -9 -9 -23 -16 -31 -16 -8 0 -31
-16 -51 -35 -30 -28 -38 -44 -43 -86 -4 -29 -5 -74 -2 -101 4 -41 11 -55 51
-96 57 -58 90 -82 112 -82 9 0 26 -9 39 -20 13 -11 32 -20 43 -20 11 0 34 -8
51 -19 17 -10 47 -21 67 -25 21 -4 42 -13 48 -20 6 -7 30 -17 54 -20 23 -4 51
-13 62 -20 11 -7 36 -17 55 -21 19 -4 51 -16 70 -26 19 -11 44 -19 56 -19 12
0 27 -7 34 -15 7 -8 28 -17 49 -21 20 -3 48 -14 63 -25 15 -10 33 -19 40 -19
7 0 27 -9 44 -19 17 -10 45 -22 62 -26 18 -3 35 -12 39 -19 5 -7 23 -18 41
-25 17 -8 32 -17 32 -22 0 -4 10 -11 21 -14 12 -4 40 -20 63 -36 22 -16 52
-37 66 -47 29 -19 185 -177 218 -221 12 -16 22 -36 22 -44 0 -7 8 -22 19 -31
10 -9 22 -31 25 -48 3 -18 12 -39 20 -47 16 -19 36 -168 36 -267 0 -99 -19
-245 -36 -271 -8 -12 -14 -28 -14 -35 0 -23 -73 -159 -117 -217 -16 -20 -151
-158 -193 -196 -9 -8 -28 -18 -43 -24 -15 -6 -27 -15 -27 -20 0 -5 -9 -13 -21
-16 -12 -4 -30 -16 -40 -26 -10 -10 -26 -19 -35 -19 -9 0 -27 -9 -41 -20 -14
-11 -34 -20 -45 -20 -10 0 -31 -9 -46 -19 -15 -11 -45 -22 -66 -26 -21 -3 -48
-13 -60 -20 -12 -7 -43 -17 -71 -21 -27 -3 -62 -13 -76 -20 -14 -7 -84 -18
-154 -24 -71 -6 -136 -15 -146 -21 -22 -12 -321 -12 -373 1 -22 5 -107 14
-190 20 -83 7 -164 18 -179 26 -15 7 -60 16 -100 20 -40 3 -85 12 -102 20 -16
8 -54 18 -82 24 -29 5 -66 16 -82 25 -17 8 -40 15 -53 15 -13 0 -36 9 -53 20
-16 11 -43 20 -58 20 -37 0 -77 41 -77 77 0 15 7 42 16 58 9 17 20 54 25 83 4
30 14 61 22 70 8 10 17 39 21 66 3 27 12 57 20 65 7 9 17 39 21 66 4 28 12 59
18 70 7 11 17 36 22 55 11 34 12 35 62 35 33 -1 58 -7 70 -17 10 -9 38 -19 63
-23 25 -4 52 -13 60 -20 8 -7 40 -16 70 -20 30 -4 66 -14 79 -22 13 -9 58 -19
99 -24 41 -5 81 -14 90 -21 11 -10 89 -14 314 -16 286 -3 301 -2 339 17 22 12
47 21 57 21 20 0 86 44 124 83 50 51 57 219 11 269 -47 51 -89 88 -99 88 -6 0
-19 9 -28 19 -10 11 -31 23 -46 26 -16 3 -34 12 -40 20 -6 7 -26 16 -44 19
-19 4 -39 13 -46 20 -6 8 -30 18 -53 21 -23 4 -53 16 -66 26 -13 11 -38 19
-55 19 -17 0 -44 9 -61 20 -16 11 -43 20 -60 20 -16 0 -43 9 -60 20 -16 11
-42 20 -56 20 -15 0 -37 8 -50 19 -13 10 -40 21 -60 25 -21 4 -42 13 -48 20
-6 8 -24 16 -40 19 -16 3 -35 12 -42 20 -8 7 -27 18 -44 24 -16 6 -50 23 -75
37 -25 14 -58 33 -75 42 -16 9 -34 23 -38 30 -4 8 -13 14 -18 14 -6 0 -35 20
-64 44 -30 24 -58 46 -63 48 -16 6 -112 129 -112 144 0 7 -5 14 -11 14 -5 0
-17 15 -25 33 -8 17 -22 43 -29 57 -8 14 -15 33 -15 43 0 10 -8 30 -17 44 -16
24 -32 145 -34 253 -2 83 19 261 33 282 8 13 18 39 22 59 3 21 13 42 21 49 8
7 15 20 15 29 0 10 11 32 25 51 14 19 25 38 25 42 0 10 62 80 109 122 19 17
47 43 63 59 16 15 35 27 42 27 7 0 21 9 31 20 10 11 22 20 27 20 6 0 21 9 35
20 14 11 34 20 44 20 9 0 25 7 34 16 9 9 35 21 58 26 23 5 49 15 57 22 8 8 36
17 63 20 26 4 59 13 73 21 15 7 65 17 113 20 47 4 95 12 106 18 11 6 61 14
110 18 118 10 489 1 540 -12z m-2127 -61 c15 -15 17 -605 2 -628 -8 -13 -97
-16 -672 -20 l-663 -5 0 -280 0 -280 633 -5 c613 -5 634 -6 648 -24 11 -16 14
-76 14 -317 0 -257 -2 -300 -16 -313 -8 -9 -16 -17 -17 -18 -1 -2 -285 -5
-632 -8 l-630 -5 -3 -294 c-2 -229 1 -296 10 -303 7 -4 311 -8 676 -8 649 0
662 0 682 -20 19 -19 20 -33 20 -308 0 -233 -3 -292 -14 -308 -14 -19 -39 -19
-1138 -22 -618 -1 -1133 0 -1145 3 -57 14 -53 -103 -53 1583 0 851 4 1552 8
1558 22 33 42 33 1163 34 854 0 1118 -3 1127 -12z m5792 -8 c19 -19 20 -33 20
-301 0 -261 -3 -302 -27 -329 -3 -3 -307 -7 -676 -10 l-672 -5 0 -280 0 -280
635 -5 634 -5 13 -25 c9 -18 13 -100 13 -310 0 -210 -4 -292 -13 -310 l-13
-25 -634 -5 -635 -5 0 -300 0 -300 674 -3 c478 -1 678 -5 688 -13 19 -17 19
-621 -1 -638 -10 -8 -312 -11 -1145 -9 -1108 3 -1133 3 -1147 22 -12 17 -14
247 -14 1568 0 1535 0 1548 20 1568 20 20 33 20 1140 20 1107 0 1120 0 1140
-20z m3190 7 l25 -13 3 -295 c2 -290 2 -296 -19 -315 -20 -18 -44 -19 -495
-22 l-474 -3 0 -1247 c0 -957 -3 -1251 -12 -1260 -9 -9 -122 -12 -448 -12
-378 0 -438 2 -458 16 l-22 15 0 1245 0 1244 -464 0 c-409 0 -466 2 -480 16
-14 13 -16 56 -16 318 0 221 3 305 12 314 18 18 2812 17 2848 -1z m-10744
-4369 c26 -12 49 -29 52 -37 7 -18 -24 -110 -45 -133 -14 -15 -17 -15 -56 3
-42 18 -146 26 -194 13 -35 -10 -39 -52 -7 -85 15 -16 34 -29 42 -29 8 0 31
-8 51 -18 20 -11 54 -27 75 -38 78 -37 117 -73 142 -130 58 -132 4 -265 -135
-332 -50 -24 -67 -27 -166 -27 -82 0 -125 5 -170 20 -86 28 -88 30 -79 89 14
104 35 118 129 86 81 -28 168 -27 195 2 11 12 20 32 20 45 0 26 -54 83 -79 83
-21 0 -141 58 -179 87 -18 13 -44 42 -57 64 -22 34 -25 50 -25 128 0 84 2 93
31 136 32 48 90 85 149 97 19 3 86 5 147 3 93 -3 120 -7 159 -27z m774 6 c37
-23 44 -42 35 -104 -9 -67 -22 -75 -92 -61 -92 18 -182 14 -228 -10 -98 -52
-135 -114 -135 -225 0 -80 13 -115 64 -173 52 -58 174 -85 271 -60 106 28 111
25 121 -73 l7 -66 -49 -22 c-57 -26 -242 -39 -309 -22 -156 40 -227 97 -295
237 -23 45 -25 62 -25 180 l0 130 38 77 c42 85 89 133 171 175 69 35 122 43
268 38 100 -3 134 -7 158 -21z m3787 17 c114 -17 144 -59 107 -151 -21 -52
-43 -64 -74 -43 -35 25 -172 31 -205 9 -51 -34 -16 -82 94 -131 136 -59 182
-95 217 -172 13 -28 24 -68 24 -88 0 -46 -49 -152 -86 -187 -87 -80 -256 -101
-411 -52 l-83 26 0 45 c0 56 25 111 54 119 12 3 46 -4 74 -15 32 -13 76 -21
112 -21 52 0 62 3 85 27 16 19 23 34 19 48 -6 20 -62 74 -78 75 -5 0 -36 12
-70 27 -74 32 -139 82 -173 134 -22 34 -25 49 -25 120 0 59 4 85 16 98 9 10
16 22 16 27 0 26 98 94 150 105 52 10 166 10 237 0z m1413 -1 c90 -13 111 -37
97 -112 -14 -75 -23 -83 -86 -69 -217 46 -354 -35 -368 -219 -5 -66 23 -149
65 -190 66 -65 191 -87 299 -53 67 21 74 15 89 -73 l11 -65 -51 -27 c-49 -26
-58 -27 -191 -26 -134 1 -143 2 -207 31 -155 73 -238 208 -238 392 0 172 82
313 220 379 83 40 221 52 360 32z m-6552 -12 c16 -16 16 -130 0 -146 -8 -8
-53 -12 -136 -12 -68 0 -132 -5 -143 -10 -21 -12 -26 -70 -9 -114 9 -26 11
-26 119 -26 62 0 121 -5 136 -12 23 -10 25 -16 25 -79 0 -86 -5 -89 -145 -89
-130 0 -145 -7 -145 -62 0 -70 15 -78 150 -78 146 0 155 -5 155 -88 0 -95 9
-92 -258 -92 -200 0 -233 2 -249 17 -17 15 -18 41 -18 404 0 300 3 388 13 392
6 3 120 6 253 6 174 1 243 -2 252 -11z m1710 0 c9 -9 12 -89 12 -297 0 -158 4
-290 8 -296 4 -5 21 -20 39 -32 48 -34 117 -31 163 7 l35 29 5 298 5 298 94 3
c60 2 98 -1 107 -9 11 -9 14 -65 14 -298 0 -175 -4 -301 -11 -325 -21 -74 -74
-133 -159 -173 -46 -22 -73 -27 -160 -30 -95 -4 -112 -2 -175 22 -38 15 -81
36 -93 48 -46 43 -84 110 -93 166 -14 87 -12 574 3 589 8 8 46 12 103 12 57 0
95 -4 103 -12z m1120 3 c9 -5 12 -29 10 -82 l-3 -74 -145 -6 c-80 -3 -146 -7
-147 -7 -8 -5 -1 -106 7 -123 10 -17 22 -19 123 -19 142 0 157 -8 157 -83 0
-31 -6 -62 -16 -75 -14 -21 -23 -22 -133 -22 -78 0 -121 -4 -129 -12 -7 -7
-12 -33 -12 -60 0 -37 4 -50 19 -58 11 -5 76 -10 144 -10 123 0 124 0 135 -25
15 -32 15 -95 2 -129 l-10 -26 -244 0 c-242 0 -245 0 -260 22 -14 19 -16 74
-16 400 0 348 1 378 18 387 21 12 481 15 500 2z m342 -301 c3 -168 9 -311 13
-317 6 -9 43 -13 128 -13 106 0 121 -2 139 -20 25 -25 27 -105 4 -138 -15 -22
-19 -22 -244 -22 -225 0 -229 0 -244 22 -14 19 -16 74 -16 398 0 285 3 379 12
388 9 9 42 12 108 10 l95 -3 5 -305z m861 300 c10 -6 19 -19 19 -29 0 -11 11
-43 25 -73 14 -29 25 -60 25 -68 0 -8 9 -33 20 -55 11 -22 20 -47 20 -55 0 -8
9 -33 20 -55 11 -22 19 -46 20 -52 0 -7 8 -32 19 -55 18 -42 24 -59 62 -167
10 -30 23 -59 27 -65 18 -22 31 -99 21 -118 -8 -15 -23 -18 -92 -18 -99 0
-122 12 -131 69 -4 26 -15 47 -33 61 -24 19 -37 20 -151 18 -99 -2 -126 -6
-132 -18 -4 -8 -19 -41 -35 -73 l-28 -58 -96 3 -96 3 -3 30 c-2 17 3 44 12 60
15 30 35 83 61 161 7 23 21 56 29 72 9 17 16 39 16 49 0 10 9 35 20 56 11 20
20 45 20 55 0 10 6 26 14 37 7 11 20 43 29 70 33 103 59 170 79 197 19 27 21
28 119 28 55 0 109 -5 120 -10z m1857 -2 c17 -17 16 -132 -1 -146 -8 -7 -69
-13 -148 -14 l-134 -3 0 -70 0 -70 128 -5 c155 -6 162 -11 153 -104 -3 -33 -9
-62 -12 -65 -3 -3 -65 -8 -137 -11 l-132 -5 -3 -44 c-7 -93 -9 -91 138 -91
122 0 130 -1 144 -22 18 -26 21 -109 6 -139 -10 -18 -24 -19 -250 -19 -226 0
-240 1 -250 19 -11 22 -15 783 -3 794 12 13 488 8 501 -5z m1083 -278 c3 -157
8 -292 13 -300 4 -8 23 -27 43 -42 51 -39 115 -39 163 2 l35 29 3 288 c2 255
4 289 19 301 21 15 166 16 194 2 18 -10 19 -24 19 -281 0 -336 -7 -371 -85
-453 -29 -31 -59 -56 -66 -56 -8 0 -27 -8 -44 -17 -24 -14 -56 -17 -155 -17
-115 -1 -130 2 -180 26 -61 29 -118 83 -149 143 -20 38 -21 54 -21 346 0 168
3 309 7 313 4 4 50 5 103 4 l95 -3 6 -285z m845 253 c16 -21 43 -58 59 -83 17
-25 35 -50 41 -57 16 -16 126 -179 143 -210 27 -51 36 -10 41 190 l5 192 94 3
c60 2 98 -1 107 -9 12 -9 14 -77 14 -385 0 -262 -3 -381 -12 -399 -11 -24 -14
-25 -103 -25 -99 0 -107 4 -158 80 -90 134 -190 280 -205 299 l-20 24 -11 -21
c-7 -13 -11 -84 -11 -189 0 -118 -4 -173 -12 -181 -7 -7 -45 -12 -98 -12 -83
0 -87 1 -98 25 -17 37 -17 766 0 783 8 8 46 12 103 12 l92 0 29 -37z m1050 16
c109 -32 148 -54 214 -120 27 -27 60 -72 74 -100 24 -46 26 -62 26 -170 0
-109 -2 -124 -26 -171 -53 -105 -176 -196 -307 -227 -26 -6 -121 -11 -212 -11
-158 0 -164 1 -179 22 -14 19 -16 74 -16 400 0 348 1 378 18 387 9 6 87 11
178 11 134 0 172 -3 230 -21z m841 9 c4 -7 16 -35 26 -63 10 -27 26 -72 36
-100 10 -27 24 -66 31 -85 7 -19 21 -52 31 -72 10 -20 19 -45 19 -55 0 -10 7
-31 15 -47 8 -16 22 -53 31 -82 8 -30 19 -56 24 -59 4 -3 11 -23 15 -45 4 -22
11 -42 16 -45 14 -10 41 -113 34 -135 -6 -18 -15 -20 -91 -20 -47 0 -94 5
-104 10 -11 6 -24 29 -31 53 -6 23 -20 52 -32 65 -19 21 -29 22 -148 22 -135
0 -141 -2 -153 -52 -3 -15 -16 -43 -27 -63 l-21 -35 -94 0 c-91 0 -94 1 -100
25 -6 24 12 80 57 183 10 23 19 48 19 55 1 6 9 30 20 52 11 22 19 47 20 55 0
8 8 31 19 50 10 19 22 51 26 70 4 19 11 40 16 46 9 11 38 89 66 179 9 28 24
62 35 78 19 27 21 27 128 27 76 0 111 -4 117 -12z m811 -16 c73 -30 113 -59
142 -101 22 -32 25 -46 25 -136 0 -97 -1 -101 -33 -147 -18 -26 -42 -50 -53
-53 -11 -4 -27 -17 -35 -30 -15 -23 -13 -27 80 -139 52 -63 100 -117 106 -121
5 -3 10 -19 10 -36 l0 -29 -113 0 c-132 0 -124 -5 -246 152 -42 54 -80 94 -87
91 -18 -7 -24 -38 -24 -127 0 -107 -9 -116 -108 -116 -121 0 -112 -33 -112
415 0 291 3 384 13 394 9 10 56 12 197 8 160 -3 192 -7 238 -25z m530 16 c9
-9 12 -109 12 -388 0 -324 -2 -379 -16 -398 -14 -20 -24 -22 -98 -22 -50 0
-87 5 -94 12 -9 9 -12 112 -12 403 0 216 3 395 7 398 12 12 188 8 201 -5z
m611 2 c10 -5 22 -26 26 -46 3 -20 15 -53 26 -73 10 -20 19 -42 19 -49 0 -8 7
-28 15 -45 8 -18 21 -50 29 -72 8 -22 26 -71 40 -110 15 -38 34 -91 42 -117 8
-26 18 -50 23 -52 5 -3 12 -23 16 -43 3 -21 12 -47 19 -58 24 -39 37 -104 26
-125 -9 -17 -21 -20 -91 -20 -44 0 -89 5 -99 10 -11 6 -24 29 -31 53 -6 23
-20 52 -32 65 -19 21 -29 22 -148 22 -135 0 -141 -2 -153 -52 -3 -15 -16 -43
-27 -63 l-21 -35 -93 0 c-75 0 -94 3 -99 16 -10 27 -7 53 14 91 11 21 20 43
20 50 0 7 8 32 19 55 18 42 25 60 62 168 11 30 24 59 29 64 6 6 10 19 10 29 0
11 9 38 19 61 21 46 66 167 77 206 4 14 15 37 26 53 19 26 22 27 119 27 55 0
108 -4 118 -10z m-5509 -1114 c0 -15 -19 -40 -57 -76 -55 -50 -61 -53 -123
-58 -53 -3 -68 -1 -79 12 -11 13 -11 21 -2 39 55 102 62 107 172 107 87 0 89
-1 89 -24z m2406 2 c6 -19 -3 -31 -47 -71 -30 -27 -64 -53 -77 -58 -35 -13
-106 -11 -127 5 -16 12 -17 17 -6 44 7 16 27 46 46 66 33 36 33 36 118 36 80
0 86 -2 93 -22z m-8588 -144 l22 -15 0 -376 c0 -438 6 -413 -95 -413 -35 0
-75 6 -90 14 -25 13 -32 13 -66 -5 -52 -26 -128 -25 -182 2 -55 28 -79 56
-111 125 -22 47 -26 71 -26 145 0 74 4 95 24 133 62 117 125 156 256 161 l85
3 5 112 c4 82 10 114 20 120 25 16 133 12 158 -6z m3706 -53 l49 -21 -6 -58
c-8 -71 -24 -86 -87 -75 -25 5 -78 8 -117 8 -83 0 -139 -25 -183 -78 -23 -29
-25 -39 -25 -142 0 -107 1 -112 28 -144 15 -18 50 -44 77 -58 44 -22 59 -24
132 -20 46 2 94 8 108 11 41 11 62 -13 68 -75 5 -64 1 -68 -78 -94 -65 -22
-210 -26 -255 -8 -16 7 -48 17 -71 23 -46 11 -168 116 -180 153 -3 12 -15 42
-26 66 -29 64 -22 253 12 326 34 73 123 156 196 182 89 32 91 32 204 28 78 -2
117 -9 154 -24z m1448 0 c26 -12 49 -25 52 -29 10 -16 -13 -95 -34 -117 -19
-21 -26 -22 -44 -13 -11 7 -64 12 -116 12 -90 1 -98 -1 -139 -29 -68 -46 -81
-71 -88 -157 -10 -132 16 -191 105 -236 52 -27 185 -31 231 -7 26 13 30 13 44
-3 26 -30 37 -60 37 -100 0 -38 -2 -40 -47 -57 -107 -38 -218 -42 -308 -10
-22 7 -51 16 -65 19 -42 9 -142 107 -175 172 -29 57 -30 64 -30 189 1 123 2
133 29 185 47 91 96 138 184 176 62 28 103 33 212 29 80 -2 116 -8 152 -24z
m1008 -7 c186 -92 265 -313 187 -520 -56 -147 -191 -237 -357 -238 -147 0
-272 66 -340 181 -25 42 -60 170 -60 217 0 48 37 186 54 205 9 10 16 22 16 27
1 22 119 124 144 124 4 0 22 6 39 14 18 8 39 17 47 20 8 3 60 4 115 1 83 -3
109 -9 155 -31z m3141 13 c57 -25 64 -39 50 -102 -15 -66 -30 -81 -63 -64 -25
14 -176 19 -219 7 -36 -10 -96 -74 -119 -126 -24 -54 -25 -112 -3 -172 20 -55
44 -83 99 -115 36 -21 55 -25 124 -25 54 0 91 5 111 16 23 11 34 13 44 4 17
-14 40 -112 32 -133 -3 -8 -32 -25 -64 -38 -73 -28 -239 -32 -288 -5 -16 9
-39 16 -50 16 -44 1 -136 82 -182 160 -31 53 -60 212 -46 253 6 17 15 52 18
77 4 25 16 56 26 69 11 13 19 28 19 33 0 29 97 112 150 129 14 4 43 15 65 24
52 20 243 15 296 -8z m1835 1 c53 -29 58 -40 43 -105 -14 -58 -14 -58 -49 -55
-19 1 -78 3 -130 4 -88 2 -98 0 -141 -27 -34 -21 -53 -42 -73 -82 -60 -123
-18 -256 100 -315 42 -21 48 -21 244 -6 l35 3 13 -64 c15 -76 12 -80 -63 -105
-88 -30 -181 -32 -271 -6 -82 24 -169 73 -201 114 -54 68 -83 160 -83 264 0
192 73 308 238 374 62 26 75 28 187 25 86 -2 129 -8 151 -19z m-9636 -17 c14
-28 13 -118 -2 -128 -7 -4 -67 -10 -133 -13 l-120 -5 -3 -39 c-2 -22 2 -50 9
-63 12 -22 18 -23 120 -23 97 0 109 -2 119 -19 14 -27 13 -124 -2 -139 -8 -8
-49 -12 -120 -12 l-108 0 -11 -27 c-7 -18 -7 -43 -2 -68 l8 -40 120 -3 c139
-3 155 -11 155 -77 0 -28 -7 -48 -20 -63 -20 -21 -27 -22 -240 -22 -207 0
-220 1 -230 19 -13 26 -14 680 0 715 l10 26 219 0 c208 0 221 -1 231 -19z
m497 8 c106 -24 219 -102 267 -182 21 -38 48 -139 48 -187 1 -74 -47 -194 -97
-244 -27 -26 -98 -76 -110 -76 -5 0 -16 -7 -25 -15 -26 -24 -174 -45 -316 -45
-111 0 -133 2 -138 16 -3 9 -6 172 -6 364 0 192 3 355 6 364 5 14 29 16 165
16 87 0 180 -5 206 -11z m577 -5 c3 -9 6 -111 6 -227 1 -245 7 -287 46 -328
24 -25 35 -29 83 -29 44 1 62 6 86 25 l30 25 5 265 c4 222 7 267 20 275 8 5
47 10 87 10 106 0 103 9 103 -293 0 -232 -1 -252 -22 -300 -50 -121 -192 -197
-340 -182 -39 4 -82 13 -97 21 -14 8 -33 14 -42 14 -9 0 -40 21 -68 48 -80 73
-91 123 -91 419 0 281 -3 273 114 273 58 0 75 -3 80 -16z m1731 -34 c13 -25
35 -79 50 -120 15 -41 36 -93 46 -116 10 -23 19 -47 19 -55 1 -8 9 -32 20 -54
11 -22 20 -47 20 -55 0 -8 7 -28 16 -45 15 -29 41 -98 68 -181 8 -24 10 -49 5
-62 -8 -20 -15 -22 -88 -22 -75 0 -80 1 -104 29 -13 16 -27 47 -31 69 -6 39
-8 41 -49 47 -76 11 -219 2 -227 -15 -4 -8 -19 -41 -35 -72 l-27 -58 -89 0
c-81 0 -88 2 -94 21 -4 12 -2 31 4 43 12 23 35 87 57 156 8 25 18 54 24 65 5
11 16 38 24 60 8 22 26 72 40 110 15 39 34 91 42 117 8 26 18 50 23 52 5 3 12
23 16 43 3 21 18 51 33 66 26 27 29 28 120 25 l93 -3 24 -45z m1189 34 c3 -9
6 -172 6 -364 0 -192 -3 -355 -6 -364 -5 -13 -22 -16 -85 -16 -116 0 -109 -23
-109 380 0 403 -7 380 109 380 63 0 80 -3 85 -16z m1180 -13 c16 -17 34 -39
40 -49 20 -36 90 -136 128 -185 20 -26 40 -56 43 -67 4 -11 13 -20 21 -20 8 0
18 -8 21 -17 14 -36 22 25 22 183 1 110 5 164 13 172 7 7 42 12 85 12 70 0 74
-1 83 -26 14 -35 13 -689 0 -715 -9 -16 -22 -19 -88 -19 -91 0 -106 8 -153 82
-18 29 -36 55 -39 58 -3 3 -13 16 -22 30 -92 136 -135 193 -143 192 -6 -1 -12
-69 -15 -165 -4 -118 -9 -169 -19 -181 -10 -12 -31 -16 -92 -16 -67 0 -80 3
-89 19 -6 13 -10 145 -10 361 0 216 4 348 10 361 9 16 22 19 93 19 79 0 85 -2
111 -29z m1418 12 c13 -12 18 -30 18 -70 0 -48 -3 -54 -26 -63 -14 -6 -57 -10
-95 -10 l-69 0 0 -278 c0 -338 5 -322 -110 -322 -52 0 -82 4 -87 13 -4 6 -10
140 -13 297 l-5 285 -92 6 c-50 4 -97 10 -103 14 -17 11 -8 124 11 136 8 5
135 9 283 9 237 0 272 -2 288 -17z m562 -5 c17 -24 21 -94 7 -117 -7 -11 -42
-16 -143 -20 l-133 -6 -3 -48 c-5 -73 3 -77 129 -77 124 0 129 -3 129 -86 0
-76 -13 -84 -140 -84 -119 0 -120 -1 -120 -66 0 -71 6 -74 143 -74 82 0 127
-4 135 -12 17 -17 15 -100 -4 -126 -15 -22 -19 -22 -239 -22 -212 0 -225 1
-235 19 -6 13 -10 145 -10 361 0 216 4 348 10 361 10 18 23 19 235 19 220 0
224 0 239 -22z m990 16 c15 -6 74 -79 136 -170 100 -146 116 -169 137 -191 13
-12 26 -23 28 -23 3 0 5 79 5 176 0 102 4 183 10 195 9 16 22 19 84 19 58 0
75 -3 80 -16 3 -9 6 -172 6 -364 0 -192 -3 -355 -6 -364 -5 -13 -22 -16 -81
-16 -41 0 -83 4 -93 10 -17 9 -120 142 -120 155 0 3 -18 28 -40 56 -22 28 -40
54 -40 58 0 5 -9 19 -21 32 -11 13 -24 30 -29 38 -4 8 -15 11 -24 8 -14 -6
-16 -27 -16 -159 0 -197 -1 -198 -109 -198 -63 0 -80 3 -85 16 -3 9 -6 172 -6
364 0 192 3 355 6 364 5 13 22 16 84 16 43 0 85 -3 94 -6z m816 -20 c6 -14 10
-165 10 -354 0 -189 -4 -340 -10 -354 -9 -25 -12 -26 -94 -26 -124 0 -116 -25
-116 380 0 405 -8 380 116 380 82 0 85 -1 94 -26z m1265 10 c13 -8 27 -30 31
-47 4 -18 15 -50 24 -72 10 -22 23 -56 30 -75 6 -19 23 -64 37 -100 13 -36 29
-80 35 -99 5 -19 16 -44 23 -55 7 -12 16 -35 20 -53 3 -17 15 -48 26 -69 10
-21 19 -44 19 -52 0 -7 7 -27 16 -44 9 -17 13 -40 10 -54 -6 -23 -10 -24 -96
-24 l-89 0 -36 76 -35 76 -125 -3 c-138 -4 -139 -5 -150 -70 -4 -20 -17 -47
-29 -58 -20 -19 -33 -22 -102 -19 l-79 3 -3 38 c-2 25 4 53 17 78 12 22 21 47
21 57 0 9 6 29 14 44 8 14 19 43 26 65 6 21 18 52 25 68 7 17 25 64 40 105 15
41 35 94 46 118 10 23 19 49 19 57 0 14 35 89 53 113 15 19 181 16 212 -4z
m-11215 -191 c88 -55 112 -105 108 -226 l-3 -92 -152 -5 c-83 -3 -154 -8 -157
-11 -4 -3 7 -21 24 -39 l30 -32 103 2 c56 2 107 2 113 1 17 -2 36 -54 32 -87
-2 -24 -11 -31 -53 -47 -108 -40 -189 -40 -298 -1 -74 26 -131 97 -153 190
-16 70 -16 79 0 151 12 58 25 87 51 119 41 50 94 85 144 95 53 11 182 0 211
-18z m5520 -1023 c74 -6 149 -15 165 -20 17 -5 63 -14 104 -20 69 -10 177 -36
246 -61 17 -6 54 -17 84 -24 30 -8 59 -19 64 -24 6 -6 17 -11 25 -11 30 0 288
-117 387 -176 22 -13 51 -29 65 -36 14 -7 58 -35 99 -63 40 -27 81 -54 90 -60
16 -10 100 -74 161 -122 19 -16 105 -98 191 -183 141 -140 248 -262 319 -365
14 -20 30 -42 36 -49 6 -6 19 -25 28 -41 9 -17 25 -43 36 -60 39 -60 142 -242
156 -275 13 -30 42 -96 68 -152 14 -31 26 -62 26 -69 0 -6 8 -30 19 -53 26
-59 51 -132 65 -197 7 -31 17 -62 21 -69 13 -21 46 -182 80 -395 33 -199 30
-670 -4 -841 -6 -27 -15 -80 -20 -119 -12 -85 -46 -239 -57 -256 -4 -7 -13
-37 -20 -68 -17 -75 -42 -148 -105 -303 -53 -130 -185 -384 -216 -416 -7 -7
-13 -20 -13 -27 0 -7 -6 -20 -13 -27 -7 -7 -23 -29 -35 -49 -12 -20 -35 -53
-52 -75 -16 -21 -36 -48 -44 -59 -97 -128 -144 -181 -262 -299 -141 -142 -269
-249 -288 -243 -18 6 -19 64 -2 115 33 101 43 563 13 600 -20 25 -27 -11 -27
-148 0 -95 -6 -163 -20 -229 -11 -52 -20 -105 -20 -118 0 -25 -50 -176 -71
-214 -46 -81 -87 -135 -131 -169 -27 -22 -55 -40 -61 -40 -7 -1 -30 -9 -52
-20 -62 -30 -236 -28 -302 3 -106 51 -130 72 -200 175 -13 18 -23 36 -23 39 0
3 -9 24 -19 47 -27 57 -58 168 -71 253 -14 86 -2 121 45 136 17 6 34 16 38 23
4 8 13 14 19 14 18 0 81 45 198 140 130 105 203 178 303 300 97 119 86 104
131 178 22 34 42 62 45 62 4 0 12 12 19 28 7 15 26 50 42 77 17 28 33 57 36
65 9 25 23 54 33 70 20 32 51 101 51 113 0 7 9 29 20 49 11 21 24 55 29 75 5
21 16 58 25 83 29 89 56 185 56 203 0 11 10 65 21 120 28 135 30 474 4 607 -9
47 -21 113 -25 147 -5 35 -14 72 -20 83 -6 11 -15 46 -21 77 -6 31 -17 66 -25
77 -8 11 -14 30 -14 41 0 11 -9 37 -19 58 -10 20 -22 48 -25 62 -7 29 -96 211
-131 270 -13 22 -29 50 -34 63 -6 12 -15 28 -21 35 -5 6 -51 68 -102 137 -81
111 -315 360 -337 360 -5 0 -21 11 -37 25 -16 14 -36 31 -44 38 -8 7 -46 33
-85 58 -98 62 -107 68 -135 81 -14 7 -32 17 -40 24 -8 7 -33 19 -55 27 -22 9
-71 27 -110 42 -225 84 -422 112 -660 94 -77 -6 -156 -15 -175 -19 -167 -42
-245 -70 -390 -139 -36 -18 -83 -43 -105 -56 -22 -13 -53 -32 -70 -41 -50 -28
-255 -197 -328 -269 -37 -38 -103 -114 -147 -169 -44 -56 -87 -108 -95 -117
-8 -9 -15 -21 -15 -27 0 -6 -10 -23 -23 -39 -13 -15 -27 -35 -30 -43 -4 -8
-18 -33 -31 -55 -31 -50 -110 -211 -151 -310 -39 -91 -96 -295 -114 -405 -6
-36 -16 -87 -22 -115 -15 -67 -14 -514 0 -585 7 -30 18 -95 27 -143 8 -49 19
-97 24 -107 5 -10 15 -42 21 -72 6 -29 18 -62 25 -73 8 -11 14 -27 14 -36 0
-16 51 -151 70 -188 5 -9 25 -50 45 -91 20 -41 44 -88 55 -105 11 -16 27 -44
37 -62 22 -37 92 -142 110 -163 7 -8 36 -44 64 -80 138 -174 316 -326 544
-468 11 -7 31 -17 45 -24 14 -7 32 -17 40 -23 38 -29 263 -108 415 -146 22 -5
149 -12 282 -16 281 -7 252 11 253 -153 1 -106 6 -143 35 -260 27 -105 84
-226 143 -299 45 -55 37 -71 -44 -88 -105 -22 -378 -34 -553 -23 -89 5 -165
12 -170 14 -4 3 -48 10 -97 16 -94 11 -228 40 -330 71 -33 11 -68 19 -77 19
-9 0 -36 9 -59 19 -24 11 -81 33 -127 51 -46 17 -91 35 -100 39 -9 5 -50 25
-91 45 -100 48 -218 114 -280 156 -8 5 -37 24 -65 42 -49 32 -154 112 -245
186 -57 46 -261 251 -317 317 -23 28 -62 75 -87 107 -51 62 -193 271 -207 303
-5 11 -23 43 -39 70 -17 28 -37 64 -45 82 -8 17 -19 34 -24 37 -5 4 -12 19
-16 35 -3 16 -24 66 -46 110 -21 44 -39 85 -39 92 0 6 -7 25 -15 42 -19 42
-54 142 -66 192 -5 22 -16 56 -24 75 -8 19 -19 60 -24 90 -5 30 -16 84 -24
120 -9 36 -21 101 -27 145 -6 44 -15 103 -20 130 -5 28 -9 177 -9 332 -1 231
2 301 18 395 10 62 22 138 25 168 4 30 13 78 21 105 7 28 18 70 24 95 21 93
50 191 59 203 6 7 14 30 18 52 4 22 15 56 25 75 11 19 19 42 19 50 0 9 6 24
14 35 7 11 19 37 25 57 14 43 127 266 146 288 7 8 16 25 19 37 4 13 13 29 19
35 7 7 25 34 40 60 75 129 370 486 445 539 10 8 53 45 95 83 41 38 108 93 149
122 40 30 78 57 83 61 11 9 80 54 135 89 136 86 398 213 471 229 19 4 43 13
54 21 11 7 38 16 60 20 22 3 49 11 60 17 31 16 153 47 245 62 47 8 103 19 125
25 97 27 491 37 725 20z m-5485 -724 c11 -7 31 -16 45 -19 23 -6 55 -33 101
-84 9 -10 20 -34 24 -53 3 -19 13 -49 21 -67 8 -18 13 -45 12 -60 -3 -46 7
-53 83 -53 68 0 106 -11 121 -34 9 -13 10 -102 2 -133 -10 -38 -59 -43 -405
-43 -388 0 -374 -4 -372 101 0 35 4 83 8 106 5 31 3 48 -9 65 -20 28 -20 97
-1 122 8 11 15 27 15 37 0 21 84 99 107 99 10 0 27 7 37 15 26 20 183 21 211
1z m10644 -11 c55 -28 121 -103 121 -139 0 -12 7 -30 15 -40 20 -26 20 -158 1
-194 -8 -15 -17 -43 -21 -63 -8 -54 -24 -63 -97 -55 -35 4 -68 12 -75 18 -19
15 -16 70 7 119 28 62 26 104 -6 136 l-25 25 -23 -21 c-13 -12 -28 -40 -35
-61 -6 -22 -16 -40 -20 -40 -5 0 -11 -14 -15 -32 -6 -32 -10 -37 -71 -100 -41
-42 -89 -54 -185 -45 -46 4 -67 12 -99 37 -23 19 -43 45 -46 61 -4 15 -13 33
-21 40 -11 9 -14 39 -14 127 0 99 3 121 22 159 28 56 41 63 100 54 63 -10 106
-59 78 -87 -15 -15 -23 -146 -11 -163 8 -12 14 -13 35 -3 14 6 26 18 26 26 0
7 6 19 14 25 8 7 18 26 21 43 14 60 80 143 139 175 57 30 122 29 185 -2z
m-5154 -207 c28 -8 68 -20 90 -26 146 -38 275 -114 392 -233 112 -114 137
-149 215 -312 72 -147 115 -276 139 -407 6 -30 18 -89 29 -130 10 -41 23 -122
29 -180 6 -58 15 -132 20 -165 25 -167 19 -1123 -8 -1215 -5 -19 -14 -78 -20
-130 -16 -155 -69 -375 -126 -525 -15 -38 -33 -86 -40 -106 -16 -41 -75 -145
-117 -204 -16 -22 -36 -51 -46 -65 -33 -48 -155 -161 -164 -152 -5 5 -16 45
-23 88 -34 186 -46 241 -60 271 -8 17 -15 38 -15 47 0 27 -77 179 -123 242
-68 92 -147 148 -272 190 -59 20 -90 24 -193 24 -87 0 -133 -4 -155 -14 -18
-8 -51 -20 -74 -26 -24 -6 -43 -15 -43 -19 0 -5 -12 -13 -28 -19 -53 -18 -169
-151 -187 -214 -4 -12 -14 -39 -23 -58 -25 -51 -24 -312 1 -355 9 -16 17 -36
17 -43 0 -29 70 -132 133 -196 38 -39 66 -75 63 -83 -8 -21 -56 -15 -142 16
-109 41 -171 74 -227 121 -23 19 -157 155 -177 178 -36 42 -123 187 -146 242
-4 8 -17 38 -30 67 -13 28 -24 57 -24 63 0 7 -6 26 -14 43 -34 75 -98 353
-115 502 -6 50 -15 115 -22 145 -16 76 -16 1154 0 1230 7 30 16 96 22 145 17
154 81 437 115 512 8 17 14 36 14 43 0 11 43 112 60 140 5 8 19 33 30 55 52
102 94 158 187 250 109 108 103 103 191 153 87 49 194 87 352 123 19 4 132 7
250 5 164 -1 227 -5 265 -18z m4719 -354 c13 -12 16 -39 16 -130 l0 -115 48 3
47 3 5 120 5 120 71 3 c100 4 104 -2 104 -133 0 -63 4 -106 11 -110 6 -4 26
-4 45 -1 l34 7 0 108 c0 131 4 136 96 136 95 0 95 0 92 -230 -3 -163 -6 -195
-21 -218 l-17 -27 -331 0 -330 0 -24 25 c-25 24 -25 25 -25 223 0 148 3 202
13 210 31 25 138 29 161 6z m-10216 -28 c35 -8 73 -22 85 -32 51 -43 85 -88
91 -119 4 -19 13 -47 21 -62 19 -35 19 -70 1 -105 -8 -15 -17 -40 -21 -56 -11
-50 -73 -101 -146 -118 -65 -16 -132 -12 -156 8 -9 7 -13 45 -13 138 0 69 -3
129 -6 133 -4 3 -17 -1 -30 -10 -23 -15 -24 -20 -24 -129 0 -128 -3 -134 -79
-134 -46 0 -71 20 -71 58 -1 15 -7 38 -15 52 -8 15 -14 52 -14 90 0 38 6 75
14 90 8 14 14 35 15 47 0 23 25 57 78 107 25 23 49 34 95 42 84 16 102 15 175
0z m10774 -523 c14 -12 18 -31 18 -78 0 -54 -4 -66 -26 -89 -25 -24 -33 -26
-116 -26 -88 0 -134 -12 -123 -31 4 -5 15 -9 25 -9 10 0 25 -6 32 -13 7 -8 26
-20 43 -28 16 -8 35 -25 42 -39 13 -26 18 -126 7 -154 -8 -20 -90 -76 -112
-76 -9 0 -24 -5 -32 -10 -13 -9 -12 -13 9 -30 19 -17 38 -20 115 -20 50 0 97
-4 104 -8 16 -11 32 -67 32 -115 0 -27 -7 -45 -25 -63 -24 -23 -31 -25 -83
-20 -31 3 -145 10 -252 15 -245 11 -361 31 -382 64 -4 7 -8 40 -8 74 0 57 3
64 32 92 17 16 51 34 73 40 23 6 47 17 54 25 6 8 27 17 45 20 19 4 39 13 46
21 7 8 27 17 46 21 19 3 34 10 34 14 0 4 14 13 32 21 l31 13 -29 9 c-16 6 -40
18 -53 28 -13 11 -33 19 -43 19 -11 0 -31 9 -45 20 -14 11 -32 20 -40 20 -8 0
-26 9 -40 20 -14 11 -34 20 -44 20 -11 0 -37 16 -59 36 -39 36 -40 38 -40 105
0 43 4 71 13 76 13 8 73 17 205 32 46 5 86 12 90 15 3 3 95 6 205 6 172 0 203
-2 219 -17z m-10372 -253 c29 -29 29 -136 -1 -174 l-20 -26 -285 0 -285 0 -13
-32 c-8 -18 -12 -37 -9 -43 2 -7 31 -19 64 -29 45 -12 62 -22 71 -41 6 -14 15
-25 19 -25 12 0 29 -70 29 -122 0 -38 4 -50 21 -59 17 -9 23 -8 30 2 15 25 9
93 -11 132 l-20 38 31 28 c34 32 69 42 111 34 22 -4 30 -14 39 -46 6 -23 17
-50 25 -61 9 -14 14 -48 14 -103 0 -67 -4 -90 -24 -127 -25 -47 -71 -96 -90
-96 -6 0 -28 -9 -49 -20 -33 -18 -56 -20 -207 -20 -161 0 -170 1 -180 21 -10
18 -10 66 1 179 0 8 -7 44 -16 80 -14 55 -14 71 -3 105 14 44 58 95 82 95 8 0
18 5 21 10 4 6 -8 10 -29 10 -39 0 -70 24 -86 66 -14 37 -12 102 4 132 8 15
17 35 20 45 3 9 16 22 28 28 13 5 34 16 48 24 20 12 84 15 338 15 299 0 313
-1 332 -20z m10340 -610 c11 -6 22 -25 25 -43 10 -56 -37 -393 -58 -414 -9 -9
-33 -7 -102 7 -56 12 -132 19 -201 20 -71 0 -144 7 -204 20 -51 11 -112 20
-135 20 -22 0 -46 5 -53 12 -7 7 -12 41 -12 83 0 65 2 74 29 99 28 27 29 27
87 15 33 -7 88 -14 124 -16 36 -1 123 -8 194 -14 106 -9 130 -9 137 3 5 7 9
54 9 104 0 56 4 94 12 102 15 15 122 16 148 2z m-10330 -405 c7 -9 15 -38 18
-66 2 -27 9 -52 13 -55 19 -11 9 -54 -13 -63 -63 -24 -151 -44 -223 -52 -44
-4 -107 -14 -140 -23 -33 -8 -76 -18 -96 -21 -41 -6 -49 -21 -49 -93 0 -60 32
-92 95 -92 25 0 60 7 76 16 17 8 68 17 117 21 48 3 115 14 150 26 49 16 72 18
100 11 33 -8 37 -13 44 -49 12 -69 9 -142 -6 -154 -8 -7 -41 -15 -73 -17 -32
-3 -74 -12 -94 -19 -20 -8 -72 -17 -115 -20 -44 -4 -96 -13 -117 -21 -49 -18
-128 -18 -153 1 -10 8 -29 15 -42 15 -27 0 -116 84 -127 120 -4 13 -13 30 -20
37 -17 16 -29 165 -20 233 11 78 73 162 130 176 17 4 38 13 47 21 10 9 46 17
85 20 37 3 86 11 108 19 22 8 84 18 138 23 53 4 100 11 104 15 12 12 50 6 63
-9z m9690 -60 c25 -4 50 -11 55 -15 6 -4 55 -11 110 -14 55 -4 112 -13 127
-21 15 -7 74 -17 130 -21 167 -11 182 -25 165 -142 -9 -64 -13 -75 -35 -83
-30 -12 -144 -2 -197 16 -22 8 -92 19 -155 24 -63 5 -135 17 -159 25 -24 9
-67 16 -95 16 -85 0 -103 28 -81 132 13 65 43 103 74 94 9 -3 36 -8 61 -11z
m-20 -280 c30 -4 64 -13 76 -20 11 -7 51 -16 90 -20 38 -4 81 -14 95 -21 15
-7 46 -17 70 -20 48 -8 113 -48 156 -97 37 -42 61 -162 44 -223 -6 -21 -11
-53 -11 -70 0 -17 -9 -43 -20 -57 -11 -14 -20 -31 -20 -37 0 -7 -26 -37 -57
-66 l-57 -54 -120 0 c-85 1 -133 6 -161 16 -22 9 -70 20 -107 24 -38 5 -78 16
-90 24 -12 9 -40 16 -61 16 -66 0 -77 12 -77 85 0 76 11 109 43 130 23 14 28
14 68 -1 24 -9 74 -20 111 -24 36 -5 79 -15 95 -23 42 -20 203 -40 235 -28 36
14 55 88 33 131 -9 17 -22 30 -29 30 -7 0 -19 6 -25 14 -7 8 -42 17 -85 21
-40 3 -86 13 -101 21 -16 8 -56 17 -89 21 -34 3 -79 13 -101 23 -22 9 -48 20
-57 23 -12 4 -18 17 -18 39 1 92 42 163 90 154 14 -3 50 -8 80 -11z m-9546
-317 c9 -12 16 -36 16 -53 0 -17 7 -40 15 -52 29 -42 7 -78 -165 -273 -53 -59
-71 -88 -60 -95 14 -9 82 5 100 21 8 7 40 16 70 20 30 4 64 13 74 20 16 11 24
11 47 -3 34 -20 39 -31 46 -110 7 -71 -4 -93 -46 -93 -14 0 -42 -8 -61 -19
-19 -10 -59 -21 -89 -25 -29 -4 -63 -13 -75 -21 -11 -8 -45 -17 -74 -21 -29
-4 -70 -15 -90 -25 -20 -11 -53 -19 -73 -19 -20 0 -42 -7 -49 -15 -6 -7 -32
-17 -58 -21 -40 -6 -48 -4 -64 16 -10 12 -18 32 -18 44 0 11 -7 30 -15 40 -29
39 -19 82 37 151 28 36 55 65 60 65 4 0 8 7 8 15 0 7 6 18 13 22 7 4 20 19 29
33 9 14 30 40 47 58 17 18 31 37 31 43 0 16 -48 10 -87 -11 -21 -11 -53 -20
-71 -20 -19 0 -49 -7 -67 -16 -18 -8 -46 -14 -61 -12 -24 3 -30 10 -44 55 -8
28 -18 55 -22 59 -14 13 -9 71 7 84 8 6 34 14 57 17 24 3 61 14 84 24 22 10
54 19 70 19 16 1 47 9 69 20 22 11 56 19 75 20 19 0 51 8 70 19 19 10 59 21
89 25 30 4 63 14 75 22 32 22 82 18 100 -8z m4776 -255 c56 -33 90 -78 128
-172 l26 -66 0 -336 c0 -378 0 -379 -71 -398 -21 -6 -92 -11 -158 -11 -125 1
-153 8 -254 65 -45 26 -136 120 -152 156 -6 16 -15 29 -19 29 -5 0 -14 17 -21
38 -7 20 -18 46 -25 57 -17 27 -38 147 -38 220 0 117 29 210 95 307 26 39 94
98 112 98 6 0 18 6 26 14 27 24 102 35 204 31 85 -4 105 -8 147 -32z m4798
-117 c15 -7 44 -16 65 -20 21 -4 41 -14 44 -22 3 -7 11 -14 17 -14 26 0 95
-62 127 -115 19 -30 39 -55 46 -55 6 0 34 18 62 40 28 22 57 40 64 40 20 0 67
-39 67 -55 0 -8 9 -19 20 -25 25 -14 27 -64 3 -85 -39 -35 -81 -65 -90 -65 -4
0 -14 -9 -21 -20 -7 -11 -19 -20 -27 -20 -8 0 -15 -4 -15 -10 0 -5 -14 -17
-31 -25 -18 -10 -38 -33 -50 -58 -30 -63 -43 -84 -77 -120 -46 -48 -82 -77
-98 -77 -8 0 -31 -9 -51 -20 -29 -15 -57 -20 -118 -20 -61 0 -89 5 -118 20
-20 11 -45 20 -55 20 -11 0 -27 9 -37 20 -10 11 -22 20 -27 20 -16 0 -95 87
-123 135 -26 43 -27 50 -23 168 2 101 6 127 21 141 9 10 17 25 17 35 0 10 11
30 25 45 14 15 25 31 25 37 0 5 6 9 13 9 7 0 18 9 25 20 7 11 17 20 22 20 6 0
19 9 30 20 11 11 30 20 43 20 12 1 33 7 47 15 32 18 143 19 178 1z m-9373
-301 c14 -14 25 -36 25 -51 0 -15 7 -35 16 -45 8 -9 17 -34 19 -54 2 -21 13
-50 24 -66 12 -15 21 -33 21 -40 0 -6 9 -27 21 -45 l21 -34 -27 -32 c-15 -18
-47 -50 -72 -72 -77 -69 -203 -193 -203 -200 0 -13 186 7 233 25 31 12 73 19
120 19 70 0 74 -2 95 -30 12 -16 22 -36 22 -43 0 -8 9 -26 20 -40 11 -14 20
-28 20 -31 0 -3 10 -16 23 -29 41 -45 67 -79 67 -88 0 -5 7 -17 15 -26 8 -10
23 -27 33 -38 26 -31 72 -103 72 -114 0 -6 9 -15 21 -21 15 -9 20 -19 17 -43
-3 -27 1 -32 29 -39 19 -5 40 -20 50 -36 10 -15 43 -52 75 -83 32 -31 58 -62
58 -67 0 -6 6 -15 13 -19 7 -4 26 -30 42 -58 26 -45 29 -59 29 -138 -1 -94 2
-88 -73 -162 -39 -38 -122 -60 -188 -49 l-40 6 -16 -59 c-10 -35 -17 -96 -17
-150 0 -111 -11 -126 -67 -97 -19 10 -38 27 -41 37 -2 9 -11 17 -18 17 -8 0
-18 8 -21 18 -4 9 -15 23 -25 30 -15 11 -18 27 -17 100 0 48 4 109 8 135 6 38
5 50 -6 54 -8 3 -19 -2 -26 -10 -27 -35 -91 -77 -118 -77 -30 0 -45 13 -111
96 -16 20 -17 25 -3 58 8 20 19 36 23 36 5 0 38 28 74 63 153 146 210 197 223
197 7 0 15 9 18 20 3 11 12 20 21 20 9 0 16 6 16 14 0 7 10 21 23 29 22 16 22
16 -11 16 -35 1 -92 43 -92 68 0 7 -4 13 -10 13 -5 0 -16 12 -25 28 -8 15 -24
37 -34 50 -19 21 -23 22 -48 10 -31 -15 -34 -49 -5 -81 8 -9 20 -25 26 -36 6
-10 24 -37 39 -61 l29 -42 -36 -37 c-45 -46 -108 -66 -131 -41 -8 9 -15 20
-15 23 0 4 -7 15 -15 25 -54 61 -65 76 -65 88 0 8 -4 14 -10 14 -20 0 -80 -34
-80 -46 0 -12 65 -105 94 -135 9 -8 19 -30 22 -47 5 -26 1 -36 -24 -62 -17
-16 -37 -30 -45 -30 -8 0 -17 -7 -21 -15 -3 -8 -12 -15 -21 -15 -18 0 -72 56
-81 85 -4 11 -15 26 -25 33 -11 7 -19 19 -19 27 0 8 -6 18 -13 22 -17 11 -67
86 -67 101 0 7 -4 12 -10 12 -5 0 -21 18 -35 40 -24 38 -25 42 -10 71 9 16 27
34 40 39 14 5 25 14 25 19 0 5 14 14 30 21 17 7 34 18 38 24 6 10 84 66 140
101 9 6 41 29 70 53 30 23 59 42 65 42 7 0 5 5 -3 10 -19 11 -212 -5 -239 -19
-11 -6 -66 -15 -123 -20 -57 -5 -123 -14 -147 -20 -24 -7 -50 -10 -56 -7 -17
6 -73 91 -81 121 -3 13 -12 29 -20 36 -8 6 -14 16 -14 21 0 19 80 107 263 290
111 111 187 195 186 205 -1 15 -2 16 -6 2 -3 -11 -20 -19 -52 -23 -27 -4 -54
-13 -61 -21 -6 -8 -31 -17 -55 -21 -25 -3 -49 -12 -56 -20 -6 -7 -27 -16 -48
-20 -20 -4 -43 -13 -52 -21 -9 -7 -34 -17 -55 -20 -22 -3 -50 -14 -64 -24 -14
-10 -44 -19 -68 -21 -41 -3 -45 0 -72 37 -20 28 -30 55 -32 89 -3 45 -1 50 27
67 42 26 73 39 93 39 9 0 31 9 47 20 17 11 38 20 49 20 10 0 33 8 50 19 17 10
47 21 67 25 21 4 42 13 49 21 7 8 24 15 38 15 13 0 39 9 56 19 17 11 49 23 71
27 22 4 46 13 53 21 20 19 40 16 67 -12z m8847 -497 c51 -35 57 -48 33 -68 -8
-7 -15 -20 -15 -29 0 -9 -17 -41 -38 -71 -54 -77 -57 -89 -27 -100 14 -5 25
-14 25 -20 0 -6 14 -1 30 12 17 12 30 29 30 38 0 9 9 25 20 35 11 10 20 24 20
31 0 14 59 74 73 74 4 0 15 -9 24 -20 10 -11 25 -20 34 -20 21 0 59 -46 59
-69 0 -10 -11 -32 -25 -51 -14 -19 -25 -39 -25 -46 0 -6 -6 -14 -14 -17 -20
-8 -30 -61 -16 -86 22 -42 73 -18 108 49 40 77 51 93 76 110 29 18 29 18 60
-3 50 -35 86 -70 86 -83 0 -7 -11 -30 -25 -50 -14 -20 -25 -43 -25 -50 0 -8
-4 -14 -10 -14 -5 0 -17 -15 -25 -32 -27 -56 -54 -101 -63 -107 -5 -3 -13 -17
-17 -31 -4 -14 -15 -33 -24 -42 -9 -9 -22 -24 -29 -33 -18 -21 -71 -11 -91 16
-7 10 -21 19 -31 19 -9 0 -28 8 -41 18 -32 22 -56 37 -101 62 -21 11 -38 24
-38 29 0 5 -14 11 -32 15 -38 8 -63 -10 -26 -19 13 -3 35 -20 49 -37 13 -17
34 -43 47 -58 12 -15 22 -36 22 -47 0 -10 7 -28 15 -41 28 -39 30 -113 5 -188
-36 -109 -60 -156 -107 -209 -18 -20 -33 -41 -33 -46 0 -5 -9 -14 -20 -21 -11
-7 -20 -17 -20 -22 0 -6 -12 -23 -27 -38 -33 -34 -72 -36 -108 -5 -14 12 -37
31 -51 42 -14 11 -37 29 -50 40 -13 11 -34 28 -47 37 -78 61 -145 116 -167
136 -40 37 -52 47 -104 83 -45 32 -66 61 -66 93 0 19 90 129 170 208 71 71
146 118 186 118 13 0 42 7 64 16 42 17 40 17 182 -26 14 -5 29 -6 32 -3 11 12
6 22 -15 28 -24 8 -106 62 -114 76 -4 5 -14 9 -24 9 -9 0 -35 16 -57 35 -34
30 -37 37 -27 52 7 10 20 35 29 56 9 20 20 37 24 37 4 0 13 12 20 28 15 37 45
90 62 110 8 9 19 29 26 45 6 15 16 27 22 27 5 0 10 6 10 13 0 46 67 48 132 5z
m-7749 -1134 c23 -4 60 -18 82 -33 49 -32 135 -112 135 -126 0 -6 9 -18 20
-28 28 -24 27 -78 -2 -103 -36 -31 -86 -64 -97 -64 -6 0 -15 9 -21 21 -7 11
-20 29 -31 40 -10 10 -19 26 -19 34 0 8 -4 15 -9 15 -4 0 -20 11 -35 25 -29
26 -51 32 -61 15 -11 -17 5 -87 25 -110 10 -11 21 -37 25 -57 4 -20 13 -46 21
-57 18 -26 18 -110 0 -128 -7 -8 -16 -23 -20 -34 -3 -11 -23 -37 -45 -58 -30
-29 -51 -40 -99 -50 -34 -7 -67 -9 -74 -4 -7 4 -29 8 -47 8 -55 0 -148 68
-217 157 -34 44 -44 65 -44 94 0 35 5 41 54 74 32 21 60 33 69 29 13 -5 65
-73 79 -102 10 -22 74 -62 99 -62 27 0 29 3 29 36 0 21 -8 47 -20 61 -11 14
-20 33 -20 41 0 9 -8 24 -17 35 -19 20 -31 153 -19 201 10 39 101 126 133 126
16 0 35 5 43 10 8 5 21 8 28 5 8 -3 32 -8 55 -11z m6772 -97 c73 -87 115 -136
172 -196 34 -36 71 -78 83 -93 12 -16 25 -28 30 -28 5 0 26 17 47 38 21 20 59
55 86 76 54 44 52 44 125 -33 48 -51 45 -66 -28 -125 -25 -20 -72 -61 -105
-92 -120 -109 -150 -134 -165 -134 -16 0 -35 17 -103 92 -215 239 -217 241
-217 254 0 7 -9 16 -20 19 -11 3 -20 9 -20 13 0 4 -27 36 -60 72 -33 36 -60
70 -60 75 0 6 13 24 29 40 87 88 114 101 153 73 14 -10 38 -33 53 -51z m-6395
-178 c0 -5 8 -13 18 -16 9 -4 36 -22 58 -40 l42 -33 -17 -33 c-36 -67 -74
-124 -113 -168 -10 -10 -18 -23 -18 -28 0 -5 -20 -34 -45 -64 -25 -31 -45 -58
-45 -61 0 -3 -14 -25 -30 -48 -17 -24 -38 -54 -48 -68 -9 -14 -22 -29 -29 -33
-7 -4 -13 -15 -13 -22 0 -24 -38 -55 -66 -55 -27 0 -61 22 -121 79 -30 28 -34
36 -25 50 7 9 16 26 22 39 5 12 14 22 20 22 6 0 15 11 20 25 10 26 47 83 66
100 6 5 26 34 44 63 18 28 36 52 39 52 3 0 20 23 36 51 17 28 38 59 48 67 9 9
17 22 17 29 0 6 8 18 19 25 10 7 21 24 26 36 11 37 95 64 95 31z m6018 -50
c23 -17 42 -34 42 -38 0 -4 15 -13 34 -19 19 -7 37 -19 40 -27 3 -8 12 -15 20
-15 8 0 19 -6 23 -13 4 -7 31 -27 58 -45 28 -17 57 -37 65 -44 8 -7 22 -17 31
-23 36 -22 74 -49 84 -60 6 -6 36 -28 68 -48 85 -57 108 -106 56 -122 -10 -4
-19 -11 -19 -16 0 -6 -13 -15 -29 -20 -16 -6 -32 -17 -35 -25 -7 -18 -65 -18
-85 1 -63 57 -55 54 -97 35 -21 -10 -48 -26 -59 -35 -11 -9 -33 -27 -50 -40
-16 -14 -33 -25 -36 -25 -4 0 -3 -17 2 -37 13 -58 11 -101 -6 -115 -9 -7 -24
-21 -33 -30 -10 -9 -28 -21 -42 -27 -14 -6 -33 -17 -42 -23 -26 -18 -52 1 -59
43 -3 19 -12 48 -21 64 -8 17 -18 58 -21 91 -2 34 -12 72 -20 85 -8 13 -17 50
-21 82 -3 32 -13 68 -20 80 -8 12 -18 54 -22 92 -3 39 -13 79 -20 90 -8 11
-14 40 -14 66 0 43 2 48 34 63 19 9 36 20 38 24 6 13 83 62 98 62 9 0 35 -14
58 -31z m-5772 -120 c11 -10 26 -19 33 -19 7 0 24 -9 38 -20 14 -11 31 -20 38
-20 6 0 20 -9 30 -20 10 -11 23 -20 30 -20 17 0 123 -108 131 -133 3 -12 13
-30 22 -40 13 -14 31 -100 33 -152 2 -44 -20 -146 -34 -159 -9 -10 -17 -22
-17 -28 0 -34 -127 -137 -170 -138 -14 0 -36 -7 -50 -15 -33 -19 -118 -19
-163 0 -20 8 -49 15 -65 15 -16 0 -41 9 -55 20 -14 11 -32 20 -41 20 -9 0 -25
9 -35 19 -10 10 -30 22 -43 26 -12 4 -30 13 -38 20 -8 8 -27 18 -43 24 -22 9
-27 17 -27 45 0 19 6 41 14 49 8 8 22 29 30 48 9 19 27 52 40 74 13 22 40 72
61 110 20 39 48 88 61 110 13 22 32 57 41 78 9 20 20 37 24 37 4 0 13 16 19
35 21 62 88 79 136 34z m5371 -120 c6 -6 15 -25 19 -42 3 -18 15 -43 25 -56
11 -13 19 -31 19 -41 0 -10 9 -29 20 -43 11 -14 20 -32 20 -40 0 -8 8 -25 19
-38 10 -13 22 -38 25 -56 4 -17 14 -37 21 -43 8 -7 17 -27 21 -45 3 -19 12
-36 19 -39 7 -2 16 -20 20 -38 4 -18 14 -38 23 -44 8 -6 17 -33 19 -61 5 -44
2 -52 -18 -67 -13 -9 -32 -16 -42 -16 -10 0 -30 -9 -44 -20 -35 -28 -59 -25
-123 15 -30 19 -68 41 -85 50 -16 8 -48 26 -70 39 -22 14 -57 34 -77 44 l-38
20 0 -26 c0 -15 9 -40 20 -57 11 -16 20 -39 20 -51 0 -11 9 -29 20 -39 11 -10
20 -25 20 -34 0 -9 7 -29 15 -45 8 -15 15 -32 15 -35 0 -16 -99 -71 -137 -77
-34 -5 -45 -2 -62 15 -12 12 -21 30 -21 41 0 11 -9 29 -20 40 -11 11 -20 31
-20 44 0 13 -7 29 -15 36 -8 7 -20 30 -25 51 -6 22 -15 39 -20 39 -5 0 -15 18
-21 40 -7 22 -18 40 -24 40 -7 0 -15 18 -18 41 -3 22 -12 48 -20 57 -8 9 -18
28 -22 42 -4 13 -16 36 -26 50 -27 37 -29 101 -4 115 11 5 33 19 48 29 43 29
138 28 169 -2 14 -12 29 -22 35 -22 6 0 21 -9 35 -19 13 -11 37 -23 51 -26 15
-4 31 -13 35 -19 7 -13 96 -58 109 -56 13 2 2 43 -18 69 -10 13 -19 31 -19 40
0 10 -7 26 -15 37 -8 10 -19 36 -25 57 -6 20 -15 37 -20 37 -15 0 -12 56 3 68
6 6 26 14 42 18 17 4 41 16 55 26 24 19 61 18 87 -3z m-4648 -235 c16 -3 35
-12 42 -20 6 -8 20 -14 30 -14 9 0 25 -7 33 -16 14 -13 16 -61 16 -373 0 -293
-3 -361 -14 -370 -20 -17 -81 -16 -108 1 -13 8 -40 20 -60 27 -33 11 -38 17
-43 54 -3 23 -4 55 -3 71 3 24 -2 30 -27 39 -16 5 -37 15 -45 22 -8 8 -32 16
-53 20 -20 4 -39 11 -42 15 -8 13 -54 -2 -60 -19 -3 -10 -23 -29 -44 -43 -31
-21 -41 -23 -55 -13 -9 7 -37 16 -62 20 -36 5 -49 13 -64 37 -20 33 -15 55 19
89 9 8 45 48 81 89 36 40 92 102 125 137 33 36 78 85 100 111 22 25 63 70 92
100 46 48 55 53 82 48 17 -3 44 -9 60 -12z m3884 -99 c15 -8 43 -17 62 -21 18
-3 41 -15 51 -25 9 -10 22 -19 28 -19 6 0 22 -14 36 -31 14 -17 32 -39 41 -48
9 -9 20 -27 24 -41 4 -14 15 -30 24 -37 13 -9 16 -35 16 -158 0 -123 -3 -148
-16 -158 -9 -7 -19 -22 -23 -34 -13 -41 -111 -129 -156 -140 -14 -3 -33 -13
-44 -22 -27 -23 -236 -23 -262 0 -11 9 -30 20 -44 24 -51 16 -105 75 -157 173
-42 79 -44 295 -2 343 10 12 19 26 19 32 0 13 84 97 97 97 6 0 20 9 33 20 13
11 33 20 44 20 12 0 37 9 56 19 43 24 133 27 173 6z m-3413 -64 c36 -5 79 -16
95 -25 17 -9 42 -16 56 -16 15 0 38 -9 52 -20 14 -11 30 -20 36 -20 5 0 21
-10 35 -22 13 -13 38 -34 55 -48 17 -14 31 -30 31 -36 0 -6 9 -19 20 -29 11
-10 20 -25 20 -34 1 -9 9 -34 20 -56 26 -54 26 -134 0 -185 -11 -22 -20 -46
-20 -54 0 -24 -76 -112 -126 -146 -55 -37 -120 -53 -219 -53 -96 -1 -231 19
-257 38 -13 8 -32 15 -45 15 -42 0 -50 21 -41 105 4 42 15 89 23 104 8 14 19
53 24 86 5 33 16 78 25 100 8 22 15 54 16 70 0 17 9 56 20 88 11 31 20 68 20
81 0 14 5 37 10 51 9 25 14 27 48 21 20 -3 66 -10 102 -15z m2848 -83 c7 -7
12 -25 12 -41 0 -15 8 -47 19 -70 10 -23 22 -77 25 -121 4 -43 13 -88 21 -100
8 -11 17 -57 21 -101 4 -44 13 -90 21 -102 8 -12 15 -50 16 -84 2 -61 1 -63
-31 -82 -17 -10 -58 -21 -90 -24 -78 -7 -92 9 -103 117 -4 45 -13 88 -19 96
-7 7 -16 51 -21 96 -5 46 -16 97 -23 113 -8 17 -17 59 -21 95 -3 36 -13 79
-21 97 -18 39 -10 79 20 96 11 6 50 14 86 18 36 3 67 7 71 7 3 1 10 -3 17 -10z
m-250 -66 c8 -11 12 -41 10 -87 l-3 -70 -111 -5 c-88 -4 -116 -9 -131 -22 -11
-10 -24 -18 -29 -18 -5 0 -20 -12 -34 -27 -23 -24 -25 -33 -24 -127 0 -98 1
-102 30 -131 16 -16 45 -38 64 -48 43 -22 130 -24 162 -3 13 8 41 18 64 21 37
6 42 4 66 -27 14 -18 28 -47 32 -65 6 -27 3 -35 -26 -62 -18 -17 -44 -31 -58
-31 -14 -1 -43 -9 -65 -20 -50 -24 -185 -27 -227 -6 -15 8 -40 17 -57 21 -37
8 -171 132 -171 158 0 9 -9 34 -20 54 -16 31 -20 57 -20 145 0 95 3 112 25
154 27 50 74 117 87 122 4 2 23 14 43 28 20 13 48 27 63 30 15 4 33 12 41 18
21 17 99 25 191 20 65 -3 88 -8 98 -22z m-1691 -44 c14 -13 31 -36 39 -53 8
-16 25 -48 39 -70 13 -22 32 -53 40 -70 50 -93 62 -110 81 -110 18 0 19 10 24
138 4 108 8 140 20 147 20 13 116 12 162 0 45 -13 53 -33 40 -103 -22 -114
-32 -209 -37 -362 -5 -154 -17 -221 -44 -248 -7 -7 -37 -10 -83 -8 -65 2 -74
5 -100 33 -16 17 -36 45 -44 62 -8 17 -26 49 -39 71 -39 65 -64 108 -77 137
-15 34 -54 54 -62 32 -3 -9 -6 -68 -6 -133 0 -154 -4 -161 -106 -161 -62 0
-77 3 -95 21 -20 20 -21 28 -14 118 4 53 11 104 16 113 5 9 9 63 9 120 1 140
16 302 32 327 17 27 31 31 112 26 54 -3 74 -9 93 -27z m901 -27 c38 -43 45
-55 54 -94 5 -23 15 -49 22 -57 8 -8 16 -31 20 -51 4 -21 13 -42 20 -48 8 -7
17 -26 20 -44 3 -18 15 -51 26 -72 11 -22 20 -48 20 -58 0 -10 7 -25 15 -33 8
-9 17 -27 20 -42 3 -15 15 -44 25 -64 25 -47 27 -133 4 -142 -9 -3 -46 -6 -83
-6 -60 0 -70 3 -93 28 -15 15 -30 43 -35 62 l-9 35 -110 -3 c-122 -4 -134 -10
-154 -84 -13 -45 -32 -52 -125 -46 -41 2 -71 10 -81 20 -14 14 -14 18 0 46 9
17 16 41 16 54 0 13 8 39 19 58 10 19 21 56 25 82 4 25 13 51 20 58 8 6 17 27
21 48 3 20 12 46 19 57 7 11 18 43 24 70 6 28 18 64 26 80 9 17 16 38 16 49 0
22 36 85 58 104 10 7 47 12 99 12 69 0 86 -3 101 -19z"/>
<path d="M10981 15160 c-6 -28 -17 -63 -25 -78 -21 -43 -30 -123 -14 -133 18
-12 119 -11 138 1 12 8 12 13 -2 43 -9 19 -20 52 -24 73 -6 35 -51 144 -59
144 -2 0 -8 -23 -14 -50z"/>
<path d="M15767 15253 c-4 -3 -7 -102 -7 -219 0 -238 -1 -234 72 -234 127 0
228 102 228 230 0 89 -68 189 -139 205 -17 4 -33 11 -36 16 -7 10 -108 12
-118 2z"/>
<path d="M16655 15169 c-4 -24 -13 -56 -20 -72 -8 -15 -19 -53 -25 -84 -14
-67 -9 -73 70 -73 81 0 85 5 61 78 -12 34 -21 69 -21 79 0 10 -13 40 -29 67
l-29 49 -7 -44z"/>
<path d="M17398 15259 c-15 -8 -18 -25 -18 -94 0 -100 9 -110 85 -96 65 12 98
46 97 101 -1 48 -2 50 -57 79 -43 23 -80 26 -107 10z"/>
<path d="M18610 15155 c-6 -30 -17 -67 -25 -82 -22 -46 -29 -114 -14 -124 18
-11 120 -11 138 0 13 8 12 15 -2 48 -9 21 -19 53 -22 72 -7 32 -53 141 -60
141 -2 0 -9 -25 -15 -55z"/>
<path d="M6775 13777 c-33 -18 -42 -31 -52 -67 -12 -47 -9 -96 9 -142 13 -36
57 -53 105 -41 l38 9 3 119 c2 104 0 121 -15 132 -24 18 -42 16 -88 -10z"/>
<path d="M12951 13952 c-88 -59 -117 -198 -65 -313 36 -79 79 -109 158 -109
127 0 199 104 182 262 -11 112 -75 178 -176 186 -48 3 -61 0 -99 -26z"/>
<path d="M8890 13769 c0 -119 4 -208 10 -220 13 -22 40 -24 78 -5 15 7 43 17
62 21 18 4 47 20 62 36 27 27 68 123 68 159 0 29 -46 123 -71 147 -33 30 -122
63 -169 63 l-40 0 0 -201z"/>
<path d="M11216 13857 c-15 -37 -28 -87 -29 -114 l-2 -48 54 -3 c30 -2 57 0
62 5 9 9 -2 67 -27 138 -9 28 -20 58 -23 69 -5 14 -14 3 -35 -47z"/>
<path d="M18655 13868 c-3 -18 -15 -59 -27 -90 -27 -77 -22 -88 44 -88 29 0
58 4 65 8 22 14 -42 202 -68 202 -4 0 -10 -15 -14 -32z"/>
<path d="M7390 13788 c-28 -30 -25 -45 9 -53 29 -6 101 2 101 12 0 3 -9 18
-21 34 -25 35 -60 38 -89 7z"/>
<path d="M7422 11947 c-32 -34 -29 -73 8 -92 42 -22 186 -21 194 1 12 32 5 56
-23 85 -26 26 -36 29 -93 29 -54 0 -68 -4 -86 -23z"/>
<path d="M7605 11337 c-8 -31 0 -61 15 -52 12 8 13 45 1 64 -8 12 -11 9 -16
-12z"/>
<path d="M7400 10270 c0 -20 5 -30 15 -30 16 0 19 17 9 44 -10 26 -24 18 -24
-14z"/>
<path d="M17488 8512 c-40 -37 -40 -40 -40 -105 0 -59 3 -69 28 -97 16 -16 33
-30 38 -30 5 0 20 -10 33 -22 20 -19 35 -22 113 -22 88 -1 90 -1 119 31 52 58
54 163 2 208 -55 50 -118 75 -187 75 -61 0 -67 -2 -106 -38z"/>
<path d="M8880 7290 c-12 -8 -11 -10 7 -10 12 0 25 5 28 10 8 13 -15 13 -35 0z"/>
<path d="M8950 7030 c0 -6 -10 -15 -22 -21 -13 -5 -28 -21 -35 -34 -10 -22 -8
-28 19 -50 31 -27 61 -31 102 -15 35 13 35 64 1 103 -23 26 -65 37 -65 17z"/>
<path d="M16817 7252 c-10 -4 -35 -25 -57 -46 -39 -37 -39 -38 -22 -62 9 -13
23 -25 29 -28 21 -9 143 -109 143 -118 0 -4 7 -8 15 -8 9 0 18 -7 22 -16 3 -8
17 -20 31 -25 34 -13 66 21 81 87 18 76 2 128 -56 182 -44 40 -49 42 -107 41
-34 0 -69 -4 -79 -7z"/>
<path d="M15826 6253 c-8 -8 5 -56 17 -64 5 -4 12 -22 16 -40 8 -40 22 -42 65
-10 l32 24 -24 24 c-12 13 -26 23 -29 23 -3 0 -21 11 -38 25 -18 13 -35 21
-39 18z"/>
<path d="M10053 6129 c-13 -15 -23 -31 -23 -37 0 -5 -8 -20 -19 -33 -10 -13
-22 -35 -26 -49 -4 -14 -16 -33 -26 -43 -11 -10 -19 -26 -19 -36 0 -10 -9 -29
-20 -41 -34 -39 -23 -61 39 -78 93 -26 194 10 216 77 3 10 12 25 20 31 23 19
19 93 -7 132 -28 40 -55 68 -88 89 -24 15 -26 15 -47 -12z"/>
<path d="M10683 5763 c-12 -16 -34 -46 -49 -68 l-26 -39 26 -23 c14 -12 32
-20 39 -17 18 7 39 84 35 133 l-3 42 -22 -28z"/>
<path d="M14496 5725 c-69 -41 -105 -136 -72 -188 8 -12 17 -38 21 -57 5 -20
25 -53 49 -78 41 -43 41 -44 101 -40 62 4 125 37 125 65 0 8 6 26 14 41 13 24
12 37 -5 110 -20 84 -33 103 -97 150 -39 28 -85 27 -136 -3z"/>
<path d="M11271 5610 c-7 -33 -16 -62 -20 -65 -5 -2 -12 -33 -15 -68 -4 -35
-14 -76 -22 -92 -33 -63 -14 -85 71 -85 67 0 115 23 147 69 24 35 28 52 28
108 0 61 -3 69 -36 109 -19 24 -41 44 -47 44 -7 0 -29 9 -50 20 -20 11 -39 20
-41 20 -2 0 -9 -27 -15 -60z"/>
<path d="M12946 5379 c-4 -31 -14 -65 -21 -75 -8 -11 -15 -29 -15 -41 0 -21 5
-23 51 -23 l52 0 -7 42 c-4 23 -12 48 -19 56 -7 8 -17 33 -23 56 l-11 41 -7
-56z"/>
</g>
</svg>
